<svg width="32" height="23" viewBox="0 0 32 23" fill="none" xmlns="http://www.w3.org/2000/svg"><g clip-path="url(#clip0_23_1277)"><path d="M22.2 18.5H2.50001C1.80001 18.5 1.30001 17.9 1.30001 17.3V1.3C1.20001 0.6 1.80001 0 2.50001 0H21C21.7 0 22.2 0.6 22.2 1.2V18.5Z" fill="#A3DEFF"/><path d="M22.2 7.39999H24.7C28.1 7.39999 30.9 10.2 30.9 13.6V18.5H22.2999V7.39999H22.2Z" fill="url(#paint0_linear_23_1277)"/><path d="M24 14.2V9.2H24.6C27 9.2 28.9 11.1 28.9 13.5V14.1H24V14.2Z" fill="white"/><path d="M31.1 20.3H0.9C0.4 20.3 0 19.9 0 19.4C0 18.9 0.4 18.5 0.9 18.5H31.1C31.6 18.5 32 18.9 32 19.4C32 19.9 31.6 20.3 31.1 20.3Z" fill="url(#paint1_linear_23_1277)"/><path d="M7.40005 16.6C9.10005 16.6 10.5 18 10.5 19.7C10.5 21.4 9.10005 22.8 7.40005 22.8C5.70005 22.8 4.30005 21.4 4.30005 19.7C4.30005 18 5.70005 16.6 7.40005 16.6Z" fill="#262626"/><path d="M7.39995 18.5C8.09995 18.5 8.59995 19.1 8.59995 19.7C8.59995 20.4 7.99995 20.9 7.39995 20.9C6.69995 20.9 6.19995 20.3 6.19995 19.7C6.19995 19 6.69995 18.5 7.39995 18.5Z" fill="white"/><path d="M25.7999 16.6C27.4999 16.6 28.9 18 28.9 19.7C28.9 21.4 27.4999 22.8 25.7999 22.8C24.0999 22.8 22.7 21.4 22.7 19.7C22.8 18 24.0999 16.6 25.7999 16.6Z" fill="#262626"/><path d="M25.8001 18.5C26.5001 18.5 27.0001 19.1 27.0001 19.7C27.0001 20.4 26.4001 20.9 25.8001 20.9C25.1001 20.9 24.6001 20.3 24.6001 19.7C24.6001 19 25.2001 18.5 25.8001 18.5Z" fill="white"/><path d="M3.69995 14.2H1.19995V16H3.69995V14.2Z" fill="url(#paint2_linear_23_1277)"/><path d="M30.6999 15.4H28.8999V17.2H30.6999V15.4Z" fill="url(#paint3_linear_23_1277)"/></g><defs><linearGradient id="paint0_linear_23_1277" x1="22.1539" y1="12.9231" x2="30.7693" y2="12.9231" gradientUnits="userSpaceOnUse"><stop stop-color="#2BA6FA"/><stop offset="1" stop-color="#00D1FF"/></linearGradient><linearGradient id="paint1_linear_23_1277" x1="0" y1="19.3846" x2="32" y2="19.3846" gradientUnits="userSpaceOnUse"><stop stop-color="#19AAF8"/><stop offset="1" stop-color="#007BD1"/></linearGradient><linearGradient id="paint2_linear_23_1277" x1="1.23075" y1="15.077" x2="3.69225" y2="15.077" gradientUnits="userSpaceOnUse"><stop stop-color="#2BA6FA"/><stop offset="1" stop-color="#00D1FF"/></linearGradient><linearGradient id="paint3_linear_23_1277" x1="28.923" y1="16.3077" x2="30.7692" y2="16.3077" gradientUnits="userSpaceOnUse"><stop stop-color="#19AAF8"/><stop offset="1" stop-color="#007BD1"/></linearGradient><clipPath id="clip0_23_1277"><rect width="32" height="22.8" fill="white"/></clipPath></defs></svg>